<?xml version="1.0" encoding="UTF-8"?> <svg xmlns="http://www.w3.org/2000/svg" xmlns:xlink="http://www.w3.org/1999/xlink" version="1.1" id="Layer_1" x="0px" y="0px" viewBox="0 0 67.1 64.2" style="enable-background:new 0 0 67.1 64.2;" xml:space="preserve"> <style type="text/css"> .st0{fill:#74A433;} </style> <g> <path class="st0" d="M33.6,54.1c-1.4,0-2.8-0.1-4.2-0.2c-1.9-0.2-3.6-1.4-4.3-3.1c-0.7-1.5-0.5-3.2,0.5-4.6c1.5-2.1,2-3.8,1.4-4.8 c-0.9-1.6-4.9-1.6-9.8,0c-2.5,0.8-5.2,0.6-7.5-0.8c-2-1.2-3.4-3-3.8-5.2c-0.2-1.1-0.3-2.2-0.3-3.2c0-12.1,12.6-22,28-22 s28,9.9,28,22S49,54.1,33.6,54.1z M23.5,38.1c2.5,0,4.4,0.7,5.2,2.2c0.7,1.2,1,3.4-1.6,7c-0.6,0.8-0.7,1.7-0.3,2.6 c0.5,1,1.5,1.8,2.7,1.9c1.3,0.2,2.6,0.2,4,0.2c14.3,0,26-9,26-20s-11.7-20-26-20s-26,9-26,20c0,1,0.1,1.9,0.3,2.9 c0.3,1.6,1.3,3,2.8,3.9c1.8,1,3.9,1.2,5.8,0.6C19.2,38.6,21.5,38.1,23.5,38.1z"></path> <path class="st0" d="M15.1,35.1c-1.9,0-3.5-1.6-3.5-3.5s1.6-3.5,3.5-3.5s3.5,1.6,3.5,3.5S17,35.1,15.1,35.1z M15.1,30.1 c-0.8,0-1.5,0.7-1.5,1.5s0.7,1.5,1.5,1.5s1.5-0.7,1.5-1.5S15.9,30.1,15.1,30.1z"></path> <path class="st0" d="M23.6,26.1c-2.2,0-4-1.8-4-4s1.8-4,4-4s4,1.8,4,4S25.8,26.1,23.6,26.1z M23.6,20.1c-1.1,0-2,0.9-2,2s0.9,2,2,2 s2-0.9,2-2S24.7,20.1,23.6,20.1z"></path> <path class="st0" d="M38.1,25.1c-2.5,0-4.5-2-4.5-4.5s2-4.5,4.5-4.5s4.5,2,4.5,4.5S40.6,25.1,38.1,25.1z M38.1,18.1 c-1.4,0-2.5,1.1-2.5,2.5s1.1,2.5,2.5,2.5s2.5-1.1,2.5-2.5S39.4,18.1,38.1,18.1z"></path> <path class="st0" d="M50.1,35.1c-3,0-5.5-2.5-5.5-5.5s2.5-5.5,5.5-5.5s5.5,2.5,5.5,5.5S53.1,35.1,50.1,35.1z M50.1,26.1 c-1.9,0-3.5,1.6-3.5,3.5s1.6,3.5,3.5,3.5s3.5-1.6,3.5-3.5S52,26.1,50.1,26.1z"></path> <path class="st0" d="M35,49.1c-1,0-1.8-0.3-2.5-1c-1.6-1.6-1.2-4.7,1.1-7c2.3-2.3,5.3-2.7,7-1.1l0,0c1.6,1.6,1.2,4.7-1.1,7 C38.1,48.4,36.5,49.1,35,49.1z M38.1,41.1c-0.9,0-2,0.5-3,1.5c-1.5,1.5-1.8,3.4-1.1,4.1c0.7,0.7,2.6,0.4,4.1-1.1 c1.5-1.5,1.8-3.4,1.1-4.1C38.9,41.2,38.6,41.1,38.1,41.1z"></path> </g> </svg> 